<svg xmlns="http://www.w3.org/2000/svg" version="1.1" xmlns:xlink="http://www.w3.org/1999/xlink" width="1500" height="312" viewBox="0 0 1500 312"><svg xml:space="preserve" width="1500" height="312" data-version="2" data-id="lg_FCo5YuY1h4UEWbfA4v" viewBox="0 0 620 312" x="0" y="0"><rect width="100%" height="100%" fill="transparent"></rect><path fill="#2967ec" d="M151.095 306.093v-119h22.1v100.3h62.22v18.7Z"></path><rect width="84.32" height="119" x="-42.16" y="-59.5" fill="none" rx="0" ry="0" transform="translate(193.75 247.1)"></rect><path fill="#2967ec" d="M294.915 307.793q-24.48 0-38.34-13.77-13.85-13.77-13.85-39.78v-67.15h22.1v66.3q0 18.36 7.9 26.69 7.91 8.33 22.36 8.33t22.27-8.33q7.82-8.33 7.82-26.69v-66.3h21.76v67.15q0 26.01-13.86 39.78-13.85 13.77-38.16 13.77"></path><rect width="104.21" height="120.7" x="-52.1" y="-60.35" fill="none" rx="0" ry="0" transform="translate(295.33 247.94)"></rect><path fill="#2967ec" d="M370.395 306.093v-119h18.19l74.63 91.63h-9.01v-91.63h21.93v119h-18.19l-74.63-91.63h9.01v91.63Z"></path><rect width="105.74" height="119" x="-52.87" y="-59.5" fill="none" rx="0" ry="0" transform="translate(423.76 247.1)"></rect><path fill="#2967ec" d="m483.785 306.093 53.55-119h21.76l53.72 119h-23.12l-46.07-107.27h8.84l-45.9 107.27Zm24.65-27.54 5.95-17.34h64.26l5.95 17.34Z"></path><rect width="129.03" height="119" x="-64.52" y="-59.5" fill="none" rx="0" ry="0" transform="translate(548.8 247.1)"></rect><path stroke="#2967ec" stroke-width="5" d="M13.94 165.787h106.379m31.322-45.296V10.96M124.12 136.038 47.664 59.582m84.731 130.24-76.456 76.456M256.287 55.081l-78.46 78.46" vector-effect="non-scaling-stroke"></path></svg></svg>